<mxfile host="65bd71144e">
    <diagram id="L0O7cY27AL1nzdleYSGe" name="Page-1">
        <mxGraphModel dx="2127" dy="3900" grid="1" gridSize="10" guides="1" tooltips="1" connect="1" arrows="1" fold="1" page="1" pageScale="1" pageWidth="850" pageHeight="1100" background="none" math="0" shadow="0">
            <root>
                <mxCell id="0"/>
                <mxCell id="1" parent="0"/>
                <mxCell id="105" value="" style="rounded=1;whiteSpace=wrap;html=1;strokeColor=none;glass=0;shadow=1;strokeWidth=1;gradientColor=none;gradientDirection=east;fillColor=#FAFAFA;arcSize=6;" parent="1" vertex="1">
                    <mxGeometry x="-360" y="-90" width="1440" height="1820" as="geometry"/>
                </mxCell>
                <mxCell id="124" value="" style="shape=mxgraph.cisco.storage.cloud;sketch=0;html=1;pointerEvents=1;dashed=0;fillColor=#CCE5FF;strokeColor=#ffffff;strokeWidth=2;verticalLabelPosition=bottom;verticalAlign=top;align=center;outlineConnect=0;" parent="1" vertex="1">
                    <mxGeometry x="520" y="593.69" width="190" height="256.38" as="geometry"/>
                </mxCell>
                <mxCell id="2" value="" style="shape=mxgraph.cisco.storage.cloud;sketch=0;html=1;pointerEvents=1;dashed=0;fillColor=#CCE5FF;strokeColor=#ffffff;strokeWidth=2;verticalLabelPosition=bottom;verticalAlign=top;align=center;outlineConnect=0;" parent="1" vertex="1">
                    <mxGeometry x="120" y="40" width="440" height="420" as="geometry"/>
                </mxCell>
                <mxCell id="3" value="" style="shape=mxgraph.cisco.storage.cloud;sketch=0;html=1;pointerEvents=1;dashed=0;fillColor=#CCE5FF;strokeColor=#ffffff;strokeWidth=2;verticalLabelPosition=bottom;verticalAlign=top;align=center;outlineConnect=0;" parent="1" vertex="1">
                    <mxGeometry x="-326" y="520" width="440" height="420" as="geometry"/>
                </mxCell>
                <mxCell id="4" value="" style="shape=mxgraph.cisco.storage.cloud;sketch=0;html=1;pointerEvents=1;dashed=0;fillColor=#CCE5FF;strokeColor=#ffffff;strokeWidth=2;verticalLabelPosition=bottom;verticalAlign=top;align=center;outlineConnect=0;" parent="1" vertex="1">
                    <mxGeometry x="700" y="505.38" width="350" height="420" as="geometry"/>
                </mxCell>
                <mxCell id="51" value="" style="shape=mxgraph.cisco.storage.cloud;sketch=0;html=1;pointerEvents=1;dashed=0;fillColor=#CCE5FF;strokeColor=#ffffff;strokeWidth=2;verticalLabelPosition=bottom;verticalAlign=top;align=center;outlineConnect=0;" parent="1" vertex="1">
                    <mxGeometry x="130" y="620" width="400" height="256.38" as="geometry"/>
                </mxCell>
                <mxCell id="54" value="UDP/IP" style="text;html=1;align=center;verticalAlign=middle;whiteSpace=wrap;rounded=0;fontColor=#666666;fontSize=14;" parent="1" vertex="1">
                    <mxGeometry x="300" y="720" width="60" height="30" as="geometry"/>
                </mxCell>
                <mxCell id="57" value="GLStation" style="text;html=1;align=center;verticalAlign=middle;whiteSpace=wrap;rounded=0;fontColor=#666666;fontSize=16;fontStyle=1" parent="1" vertex="1">
                    <mxGeometry x="829" y="613.76" width="100" height="30" as="geometry"/>
                </mxCell>
                <mxCell id="58" value="Site A - Management console" style="text;html=1;align=center;verticalAlign=middle;whiteSpace=wrap;rounded=0;fontColor=#666666;fontSize=18;fontStyle=1" parent="1" vertex="1">
                    <mxGeometry x="-315" y="505.38" width="329" height="30" as="geometry"/>
                </mxCell>
                <mxCell id="59" value="Site C - Public internet - VPN hub" style="text;html=1;align=right;verticalAlign=middle;whiteSpace=wrap;rounded=0;fontColor=#666666;fontSize=18;fontStyle=1" parent="1" vertex="1">
                    <mxGeometry x="-170" y="163" width="330" height="30" as="geometry"/>
                </mxCell>
                <mxCell id="60" value="GLStation-001" style="text;html=1;align=center;verticalAlign=middle;whiteSpace=wrap;rounded=0;fontColor=#666666;fontSize=18;fontStyle=1" parent="1" vertex="1">
                    <mxGeometry x="767.75" y="490" width="241" height="30" as="geometry"/>
                </mxCell>
                <mxCell id="66" value="" style="group" parent="1" vertex="1" connectable="0">
                    <mxGeometry x="4" y="572.75" width="73.75000000000001" height="367.25" as="geometry"/>
                </mxCell>
                <mxCell id="43" value="" style="group;rotation=-90;" parent="66" vertex="1" connectable="0">
                    <mxGeometry x="-129" y="157.25" width="360" height="45.5" as="geometry"/>
                </mxCell>
                <mxCell id="44" value="" style="line;strokeWidth=4;html=1;dashed=1;fillColor=#fff2cc;gradientColor=#ffd966;strokeColor=#d6b656;container=0;rotation=-90;" parent="43" vertex="1">
                    <mxGeometry x="102" y="-82" width="160" height="10" as="geometry"/>
                </mxCell>
                <mxCell id="45" value="" style="line;strokeWidth=4;html=1;dashed=1;fillColor=#fff2cc;gradientColor=#ffd966;strokeColor=#d6b656;container=0;rotation=-90;" parent="43" vertex="1">
                    <mxGeometry x="102" y="118" width="160" height="10" as="geometry"/>
                </mxCell>
                <mxCell id="48" value="Allow established" style="text;html=1;align=left;verticalAlign=middle;whiteSpace=wrap;rounded=0;fontSize=14;fontColor=#CC6600;container=0;rotation=-90;" parent="43" vertex="1">
                    <mxGeometry x="123" y="-105" width="140" height="20" as="geometry"/>
                </mxCell>
                <mxCell id="75" value="" style="triangle;whiteSpace=wrap;html=1;fillColor=#fff2cc;gradientColor=#ffd966;strokeColor=#d6b656;" parent="43" vertex="1">
                    <mxGeometry x="179" y="2.75" width="30" height="40" as="geometry"/>
                </mxCell>
                <mxCell id="67" value="Hub" style="swimlane;fillColor=#f5f5f5;gradientColor=#b3b3b3;strokeColor=#666666;fontSize=14;" parent="1" vertex="1">
                    <mxGeometry x="300" y="100" width="120" height="140" as="geometry">
                        <mxRectangle x="320" y="130" width="80" height="30" as="alternateBounds"/>
                    </mxGeometry>
                </mxCell>
                <mxCell id="91" value="10.0.100.252" style="text;html=1;align=center;verticalAlign=middle;whiteSpace=wrap;rounded=0;fontColor=#666666;fontSize=16;" parent="67" vertex="1">
                    <mxGeometry x="15" y="24.5" width="70" height="20" as="geometry"/>
                </mxCell>
                <mxCell id="53" value="wg0" style="ellipse;whiteSpace=wrap;html=1;aspect=fixed;fillColor=#fff2cc;strokeColor=#d6b656;gradientColor=#ffd966;fontSize=16;shadow=1;" parent="67" vertex="1">
                    <mxGeometry x="28.75" y="44.5" width="40" height="40" as="geometry"/>
                </mxCell>
                <mxCell id="68" value="Endpoint 001" style="swimlane;fontSize=14;fillColor=#f5f5f5;gradientColor=#b3b3b3;strokeColor=#666666;" parent="1" vertex="1">
                    <mxGeometry x="875" y="645.38" width="116.5" height="154.62" as="geometry">
                        <mxRectangle x="320" y="130" width="80" height="30" as="alternateBounds"/>
                    </mxGeometry>
                </mxCell>
                <mxCell id="69" value="wg0" style="ellipse;whiteSpace=wrap;html=1;aspect=fixed;fillColor=#fff2cc;strokeColor=#d6b656;gradientColor=#ffd966;fontSize=16;shadow=1;" parent="68" vertex="1">
                    <mxGeometry x="28.75" y="48.88" width="40" height="40" as="geometry"/>
                </mxCell>
                <mxCell id="92" value="10.0.100.1" style="text;html=1;align=center;verticalAlign=middle;whiteSpace=wrap;rounded=0;fontColor=#666666;fontSize=16;" parent="68" vertex="1">
                    <mxGeometry x="12.5" y="28.879999999999995" width="70" height="20" as="geometry"/>
                </mxCell>
                <mxCell id="70" value="Endpoint A" style="swimlane;fillColor=#f5f5f5;gradientColor=#b3b3b3;strokeColor=#666666;fontSize=14;" parent="1" vertex="1">
                    <mxGeometry x="-251" y="643.76" width="111" height="156.24" as="geometry">
                        <mxRectangle x="320" y="130" width="80" height="30" as="alternateBounds"/>
                    </mxGeometry>
                </mxCell>
                <mxCell id="71" value="wg0" style="ellipse;whiteSpace=wrap;html=1;aspect=fixed;fillColor=#fff2cc;strokeColor=#d6b656;gradientColor=#ffd966;fontSize=14;shadow=1;" parent="70" vertex="1">
                    <mxGeometry x="30" y="50.24" width="40" height="40" as="geometry"/>
                </mxCell>
                <mxCell id="55" value="10.0.100.251" style="text;html=1;align=center;verticalAlign=middle;whiteSpace=wrap;rounded=0;fontColor=#666666;fontSize=14;" parent="70" vertex="1">
                    <mxGeometry x="15" y="30.240000000000002" width="70" height="20" as="geometry"/>
                </mxCell>
                <mxCell id="77" value="" style="group;fontSize=14;" parent="1" vertex="1" connectable="0">
                    <mxGeometry x="589" y="572.75" width="80" height="367.25" as="geometry"/>
                </mxCell>
                <mxCell id="64" value="" style="group" parent="77" vertex="1" connectable="0">
                    <mxGeometry x="1.25" width="78.75" height="367.25" as="geometry"/>
                </mxCell>
                <mxCell id="36" value="" style="group;rotation=-90;" parent="64" vertex="1" connectable="0">
                    <mxGeometry x="-157.25" y="157.25" width="360" height="45.5" as="geometry"/>
                </mxCell>
                <mxCell id="37" value="" style="line;strokeWidth=4;html=1;dashed=1;fillColor=#fff2cc;gradientColor=#ffd966;strokeColor=#d6b656;container=0;rotation=-90;" parent="36" vertex="1">
                    <mxGeometry x="102" y="-82" width="160" height="10" as="geometry"/>
                </mxCell>
                <mxCell id="38" value="" style="line;strokeWidth=4;html=1;dashed=1;fillColor=#fff2cc;gradientColor=#ffd966;strokeColor=#d6b656;container=0;rotation=-90;" parent="36" vertex="1">
                    <mxGeometry x="103" y="118" width="160" height="10" as="geometry"/>
                </mxCell>
                <mxCell id="41" value="Allow&amp;nbsp; established" style="text;html=1;align=left;verticalAlign=middle;whiteSpace=wrap;rounded=0;fontSize=14;fontColor=#CC6600;container=0;rotation=-90;" parent="36" vertex="1">
                    <mxGeometry x="99" y="-102" width="140" height="20" as="geometry"/>
                </mxCell>
                <mxCell id="62" value="" style="editableCssRules=.*;html=1;shape=image;verticalLabelPosition=bottom;labelBackgroundColor=#ffffff;verticalAlign=top;aspect=fixed;imageAspect=0;image=data:image/svg+xml,PHN2ZyB4bWxucz0iaHR0cDovL3d3dy53My5vcmcvMjAwMC9zdmciIHhtbG5zOnY9Imh0dHBzOi8vdmVjdGEuaW8vbmFubyIgd2lkdGg9IjIwIiBoZWlnaHQ9IjIwIiBmaWxsPSIjNDI4NWY0IiB2aWV3Qm94PSIwIDAgMjAgMjAiPiYjeGE7CTxzdHlsZSB0eXBlPSJ0ZXh0L2NzcyI+JiN4YTsJLnN0MHtmaWxsOiM0Mjg1ZjQ7fSYjeGE7CTwvc3R5bGU+JiN4YTsJPHBhdGggY2xhc3M9InN0MCIgZD0iTTAgMGg4Ljg5djIuMjJIMHptMCAxNy43OGg4Ljg5VjIwSDB6bTAtOC44OWg4Ljg5djIuMjJIMHpNMTEuMTEgMEgyMHYyLjIyaC04Ljg5em0wIDE3Ljc4SDIwVjIwaC04Ljg5em0wLTguODlIMjB2Mi4yMmgtOC44OXpNNS41NSA0LjQ0aDguODl2Mi4yMkg1LjU1em0wIDguODloOC44OXYyLjIySDUuNTV6TTAgNC40NGgzLjMzdjIuMjJIMHptMCA4Ljg5aDMuMzN2Mi4yMkgwem0xNi42Ny04Ljg5SDIwdjIuMjJoLTMuMzN6bTAgOC44OUgyMHYyLjIyaC0zLjMzeiIvPiYjeGE7PC9zdmc+;" parent="64" vertex="1">
                    <mxGeometry x="33.75" y="327.25" width="40" height="40" as="geometry"/>
                </mxCell>
                <mxCell id="40" value="Firewall" style="text;html=1;align=left;verticalAlign=middle;whiteSpace=wrap;rounded=0;fontSize=14;fontColor=#FFB366;container=0;rotation=0;" parent="64" vertex="1">
                    <mxGeometry x="33.75" y="307.25" width="50" height="20" as="geometry"/>
                </mxCell>
                <mxCell id="76" value="" style="triangle;whiteSpace=wrap;html=1;fillColor=#fff2cc;gradientColor=#ffd966;strokeColor=#d6b656;rotation=-180;" parent="77" vertex="1">
                    <mxGeometry y="160.01" width="30" height="40" as="geometry"/>
                </mxCell>
                <mxCell id="87" value="" style="group;fontSize=16;" parent="1" vertex="1" connectable="0">
                    <mxGeometry x="-56" y="714.26" width="70" height="62.5" as="geometry"/>
                </mxCell>
                <mxCell id="56" value="NAT" style="text;html=1;align=center;verticalAlign=middle;whiteSpace=wrap;rounded=0;fontColor=#666666;fontSize=14;" parent="87" vertex="1">
                    <mxGeometry width="70" height="30" as="geometry"/>
                </mxCell>
                <mxCell id="81" value="" style="editableCssRules=.*;html=1;shape=image;verticalLabelPosition=bottom;labelBackgroundColor=#ffffff;verticalAlign=top;aspect=fixed;imageAspect=0;image=data:image/svg+xml,PHN2ZyB4bWxucz0iaHR0cDovL3d3dy53My5vcmcvMjAwMC9zdmciIHhtbG5zOnY9Imh0dHBzOi8vdmVjdGEuaW8vbmFubyIgd2lkdGg9IjIwIiBoZWlnaHQ9IjIwIiB2aWV3Qm94PSIwIDAgMjAgMjAiPiYjeGE7CTxzdHlsZSB0eXBlPSJ0ZXh0L2NzcyI+JiN4YTsJLnN0MHtmaWxsOiM0Mjg1ZjQ7fSYjeGE7CTwvc3R5bGU+JiN4YTsJPHBhdGggY2xhc3M9InN0MCIgZD0iTTE3IDEydjNsLTUtNSA1LTV2M2gzdjR6TTMgOEgwdjRoM3YzbDUtNS01LTV6bTkgN3YtM0g4djNINWw1IDUgNS01em0wLTEwdjNIOFY1SDVsNS01IDUgNXoiLz4mI3hhOzwvc3ZnPg==;" parent="87" vertex="1">
                    <mxGeometry x="15" y="22.5" width="40" height="40" as="geometry"/>
                </mxCell>
                <mxCell id="88" value="" style="group;fontSize=16;" parent="1" vertex="1" connectable="0">
                    <mxGeometry x="625" y="716.26" width="70" height="60.49000000000001" as="geometry"/>
                </mxCell>
                <mxCell id="80" value="NAT" style="text;html=1;align=center;verticalAlign=middle;whiteSpace=wrap;rounded=0;fontColor=#666666;fontSize=14;" parent="88" vertex="1">
                    <mxGeometry width="70" height="30" as="geometry"/>
                </mxCell>
                <mxCell id="82" value="" style="editableCssRules=.*;html=1;shape=image;verticalLabelPosition=bottom;labelBackgroundColor=#ffffff;verticalAlign=top;aspect=fixed;imageAspect=0;image=data:image/svg+xml,PHN2ZyB4bWxucz0iaHR0cDovL3d3dy53My5vcmcvMjAwMC9zdmciIHhtbG5zOnY9Imh0dHBzOi8vdmVjdGEuaW8vbmFubyIgd2lkdGg9IjIwIiBoZWlnaHQ9IjIwIiB2aWV3Qm94PSIwIDAgMjAgMjAiPiYjeGE7CTxzdHlsZSB0eXBlPSJ0ZXh0L2NzcyI+JiN4YTsJLnN0MHtmaWxsOiM0Mjg1ZjQ7fSYjeGE7CTwvc3R5bGU+JiN4YTsJPHBhdGggY2xhc3M9InN0MCIgZD0iTTE3IDEydjNsLTUtNSA1LTV2M2gzdjR6TTMgOEgwdjRoM3YzbDUtNS01LTV6bTkgN3YtM0g4djNINWw1IDUgNS01em0wLTEwdjNIOFY1SDVsNS01IDUgNXoiLz4mI3hhOzwvc3ZnPg==;" parent="88" vertex="1">
                    <mxGeometry x="15" y="20.49000000000001" width="40" height="40" as="geometry"/>
                </mxCell>
                <mxCell id="103" value="" style="group" parent="1" vertex="1" connectable="0">
                    <mxGeometry x="739" y="574" width="101" height="367.25" as="geometry"/>
                </mxCell>
                <mxCell id="93" value="" style="group;fontSize=14;" parent="103" vertex="1" connectable="0">
                    <mxGeometry width="101" height="367.25" as="geometry"/>
                </mxCell>
                <mxCell id="94" value="" style="group" parent="93" vertex="1" connectable="0">
                    <mxGeometry x="1.25" width="99.75" height="367.25" as="geometry"/>
                </mxCell>
                <mxCell id="95" value="" style="group;rotation=-90;" parent="94" vertex="1" connectable="0">
                    <mxGeometry x="-157.25" y="157.25" width="360" height="45.5" as="geometry"/>
                </mxCell>
                <mxCell id="96" value="" style="line;strokeWidth=4;html=1;dashed=1;fillColor=#fff2cc;gradientColor=#ffd966;strokeColor=#d6b656;container=0;rotation=-90;" parent="95" vertex="1">
                    <mxGeometry x="102" y="-82" width="160" height="10" as="geometry"/>
                </mxCell>
                <mxCell id="97" value="" style="line;strokeWidth=4;html=1;dashed=1;fillColor=#fff2cc;gradientColor=#ffd966;strokeColor=#d6b656;container=0;rotation=-90;" parent="95" vertex="1">
                    <mxGeometry x="103" y="118" width="160" height="10" as="geometry"/>
                </mxCell>
                <mxCell id="98" value="Allow&amp;nbsp; GLStation ssh" style="text;html=1;align=left;verticalAlign=middle;whiteSpace=wrap;rounded=0;fontSize=14;fontColor=#CC6600;container=0;rotation=-90;" parent="95" vertex="1">
                    <mxGeometry x="100" y="-105" width="140" height="20" as="geometry"/>
                </mxCell>
                <mxCell id="99" value="" style="editableCssRules=.*;html=1;shape=image;verticalLabelPosition=bottom;labelBackgroundColor=#ffffff;verticalAlign=top;aspect=fixed;imageAspect=0;image=data:image/svg+xml,PHN2ZyB4bWxucz0iaHR0cDovL3d3dy53My5vcmcvMjAwMC9zdmciIHhtbG5zOnY9Imh0dHBzOi8vdmVjdGEuaW8vbmFubyIgd2lkdGg9IjIwIiBoZWlnaHQ9IjIwIiBmaWxsPSIjNDI4NWY0IiB2aWV3Qm94PSIwIDAgMjAgMjAiPiYjeGE7CTxzdHlsZSB0eXBlPSJ0ZXh0L2NzcyI+JiN4YTsJLnN0MHtmaWxsOiM0Mjg1ZjQ7fSYjeGE7CTwvc3R5bGU+JiN4YTsJPHBhdGggY2xhc3M9InN0MCIgZD0iTTAgMGg4Ljg5djIuMjJIMHptMCAxNy43OGg4Ljg5VjIwSDB6bTAtOC44OWg4Ljg5djIuMjJIMHpNMTEuMTEgMEgyMHYyLjIyaC04Ljg5em0wIDE3Ljc4SDIwVjIwaC04Ljg5em0wLTguODlIMjB2Mi4yMmgtOC44OXpNNS41NSA0LjQ0aDguODl2Mi4yMkg1LjU1em0wIDguODloOC44OXYyLjIySDUuNTV6TTAgNC40NGgzLjMzdjIuMjJIMHptMCA4Ljg5aDMuMzN2Mi4yMkgwem0xNi42Ny04Ljg5SDIwdjIuMjJoLTMuMzN6bTAgOC44OUgyMHYyLjIyaC0zLjMzeiIvPiYjeGE7PC9zdmc+;" parent="94" vertex="1">
                    <mxGeometry x="33.75" y="327.25" width="40" height="40" as="geometry"/>
                </mxCell>
                <mxCell id="100" value="Firewall" style="text;html=1;align=left;verticalAlign=middle;whiteSpace=wrap;rounded=0;fontSize=12;fontColor=#FFB366;container=0;rotation=0;" parent="94" vertex="1">
                    <mxGeometry x="33.75" y="307.25" width="50" height="20" as="geometry"/>
                </mxCell>
                <mxCell id="128" value="UDP/IP" style="text;html=1;align=center;verticalAlign=middle;whiteSpace=wrap;rounded=0;fontColor=#666666;fontSize=14;" parent="94" vertex="1">
                    <mxGeometry x="58.75" y="146" width="60" height="30" as="geometry"/>
                </mxCell>
                <mxCell id="102" value="" style="rhombus;whiteSpace=wrap;html=1;fillColor=#fff2cc;gradientColor=#ffd966;strokeColor=#d6b656;container=0;" parent="103" vertex="1">
                    <mxGeometry x="7" y="153" width="40" height="39" as="geometry"/>
                </mxCell>
                <mxCell id="63" value="" style="editableCssRules=.*;html=1;shape=image;verticalLabelPosition=bottom;labelBackgroundColor=#ffffff;verticalAlign=top;aspect=fixed;imageAspect=0;image=data:image/svg+xml,PHN2ZyB4bWxucz0iaHR0cDovL3d3dy53My5vcmcvMjAwMC9zdmciIHhtbG5zOnY9Imh0dHBzOi8vdmVjdGEuaW8vbmFubyIgd2lkdGg9IjIwIiBoZWlnaHQ9IjIwIiBmaWxsPSIjNDI4NWY0IiB2aWV3Qm94PSIwIDAgMjAgMjAiPiYjeGE7CTxzdHlsZSB0eXBlPSJ0ZXh0L2NzcyI+JiN4YTsJLnN0MHtmaWxsOiM0Mjg1ZjQ7fSYjeGE7CTwvc3R5bGU+JiN4YTsJPHBhdGggY2xhc3M9InN0MCIgZD0iTTAgMGg4Ljg5djIuMjJIMHptMCAxNy43OGg4Ljg5VjIwSDB6bTAtOC44OWg4Ljg5djIuMjJIMHpNMTEuMTEgMEgyMHYyLjIyaC04Ljg5em0wIDE3Ljc4SDIwVjIwaC04Ljg5em0wLTguODlIMjB2Mi4yMmgtOC44OXpNNS41NSA0LjQ0aDguODl2Mi4yMkg1LjU1em0wIDguODloOC44OXYyLjIySDUuNTV6TTAgNC40NGgzLjMzdjIuMjJIMHptMCA4Ljg5aDMuMzN2Mi4yMkgwem0xNi42Ny04Ljg5SDIwdjIuMjJoLTMuMzN6bTAgOC44OUgyMHYyLjIyaC0zLjMzeiIvPiYjeGE7PC9zdmc+;" parent="1" vertex="1">
                    <mxGeometry x="64" y="900" width="40" height="40" as="geometry"/>
                </mxCell>
                <mxCell id="47" value="Firewall" style="text;html=1;align=left;verticalAlign=middle;whiteSpace=wrap;rounded=0;fontSize=14;fontColor=#FFB366;container=0;rotation=0;" parent="1" vertex="1">
                    <mxGeometry x="64" y="880" width="50" height="20" as="geometry"/>
                </mxCell>
                <mxCell id="108" value="" style="endArrow=none;html=1;exitX=1;exitY=0.5;exitDx=0;exitDy=0;strokeWidth=5;strokeColor=#999999;edgeStyle=orthogonalEdgeStyle;entryX=0;entryY=1;entryDx=0;entryDy=0;" parent="1" source="71" target="53" edge="1">
                    <mxGeometry width="50" height="50" relative="1" as="geometry">
                        <mxPoint x="250" y="610" as="sourcePoint"/>
                        <mxPoint x="350" y="714" as="targetPoint"/>
                    </mxGeometry>
                </mxCell>
                <mxCell id="113" value="Internet" style="text;html=1;align=center;verticalAlign=middle;whiteSpace=wrap;rounded=0;fontColor=#999999;fontSize=18;fontStyle=1" parent="1" vertex="1">
                    <mxGeometry x="170" y="613.76" width="170" height="30" as="geometry"/>
                </mxCell>
                <mxCell id="90" value="" style="group;fontSize=14;shadow=1;" parent="1" vertex="1" connectable="0">
                    <mxGeometry x="373" y="310" width="80" height="50" as="geometry"/>
                </mxCell>
                <mxCell id="83" value="" style="editableCssRules=.*;html=1;shape=image;verticalLabelPosition=bottom;labelBackgroundColor=#ffffff;verticalAlign=top;aspect=fixed;imageAspect=0;image=data:image/svg+xml,PHN2ZyB4bWxucz0iaHR0cDovL3d3dy53My5vcmcvMjAwMC9zdmciIHhtbG5zOnY9Imh0dHBzOi8vdmVjdGEuaW8vbmFubyIgd2lkdGg9IjIwIiBoZWlnaHQ9IjIwIiB2aWV3Qm94PSIwIDAgMjAgMjAiPiYjeGE7CTxzdHlsZSB0eXBlPSJ0ZXh0L2NzcyI+JiN4YTsJLnN0MHtmaWxsOiM0Mjg1ZjQ7fSYjeGE7CTwvc3R5bGU+JiN4YTsJPHBhdGggY2xhc3M9InN0MCIgZD0iTTE3IDEydjNsLTUtNSA1LTV2M2gzdjR6TTMgOEgwdjRoM3YzbDUtNS01LTV6bTkgN3YtM0g4djNINWw1IDUgNS01em0wLTEwdjNIOFY1SDVsNS01IDUgNXoiLz4mI3hhOzwvc3ZnPg==;" parent="90" vertex="1">
                    <mxGeometry y="10" width="40" height="40" as="geometry"/>
                </mxCell>
                <mxCell id="85" value="NAT" style="text;html=1;align=center;verticalAlign=middle;whiteSpace=wrap;rounded=0;fontColor=#666666;fontSize=14;" parent="90" vertex="1">
                    <mxGeometry x="20" width="70" height="30" as="geometry"/>
                </mxCell>
                <mxCell id="117" value="WireGuard tunnel A" style="text;html=1;align=right;verticalAlign=middle;whiteSpace=wrap;rounded=0;fontColor=#B3B3B3;fontSize=18;fontStyle=1" parent="1" vertex="1">
                    <mxGeometry x="90" y="478.75" width="190" height="30" as="geometry"/>
                </mxCell>
                <mxCell id="118" value="&amp;nbsp;WireGuard tunnel GLStation-001 ... 250" style="text;html=1;align=left;verticalAlign=middle;whiteSpace=wrap;rounded=0;fontColor=#999999;fontSize=18;fontStyle=1" parent="1" vertex="1">
                    <mxGeometry x="441.5" y="450" width="550" height="44.25" as="geometry"/>
                </mxCell>
                <mxCell id="120" value="" style="endArrow=none;html=1;exitX=1;exitY=0.5;exitDx=0;exitDy=0;fontColor=#007FFF;strokeColor=#CCCCCC;strokeWidth=2;" parent="1" source="117" edge="1">
                    <mxGeometry width="50" height="50" relative="1" as="geometry">
                        <mxPoint x="280" y="528" as="sourcePoint"/>
                        <mxPoint x="330" y="510" as="targetPoint"/>
                    </mxGeometry>
                </mxCell>
                <mxCell id="121" value="" style="endArrow=none;html=1;exitX=0.016;exitY=0.543;exitDx=0;exitDy=0;fontColor=#007FFF;strokeColor=#CCCCCC;strokeWidth=2;exitPerimeter=0;" parent="1" source="118" edge="1">
                    <mxGeometry width="50" height="50" relative="1" as="geometry">
                        <mxPoint x="290" y="538" as="sourcePoint"/>
                        <mxPoint x="370" y="510" as="targetPoint"/>
                    </mxGeometry>
                </mxCell>
                <mxCell id="122" value="GLStation Management Network" style="text;html=1;align=center;verticalAlign=middle;whiteSpace=wrap;rounded=0;fontColor=#0066CC;fontSize=44;fontStyle=1" parent="1" vertex="1">
                    <mxGeometry x="-61" y="-20" width="822" height="30" as="geometry"/>
                </mxCell>
                <mxCell id="125" value="Mobile network" style="text;html=1;align=center;verticalAlign=middle;whiteSpace=wrap;rounded=0;fontColor=#999999;fontSize=18;fontStyle=1" parent="1" vertex="1">
                    <mxGeometry x="515.5" y="550" width="195.5" height="30" as="geometry"/>
                </mxCell>
                <mxCell id="126" value="UDP/IP" style="text;html=1;align=center;verticalAlign=middle;whiteSpace=wrap;rounded=0;fontColor=#666666;fontSize=14;" parent="1" vertex="1">
                    <mxGeometry x="-130" y="720" width="60" height="30" as="geometry"/>
                </mxCell>
                <mxCell id="127" value="UDP/IP" style="text;html=1;align=center;verticalAlign=middle;whiteSpace=wrap;rounded=0;fontColor=#666666;fontSize=14;" parent="1" vertex="1">
                    <mxGeometry x="270" y="260" width="60" height="30" as="geometry"/>
                </mxCell>
                <mxCell id="129" value="SSH" style="shape=ext;double=1;rounded=0;whiteSpace=wrap;html=1;strokeColor=#004C99;" parent="1" vertex="1">
                    <mxGeometry x="-230" y="750" width="70" height="30" as="geometry"/>
                </mxCell>
                <mxCell id="130" value="SSHD" style="shape=ext;double=1;rounded=0;whiteSpace=wrap;html=1;strokeColor=#004C99;" parent="1" vertex="1">
                    <mxGeometry x="890" y="750" width="70" height="30" as="geometry"/>
                </mxCell>
                <mxCell id="131" value="SSH" style="shape=ext;double=1;rounded=0;whiteSpace=wrap;html=1;strokeColor=#004C99;" parent="1" vertex="1">
                    <mxGeometry x="346" y="193" width="70" height="30" as="geometry"/>
                </mxCell>
                <mxCell id="114" value="" style="endArrow=none;html=1;exitX=0;exitY=0.5;exitDx=0;exitDy=0;strokeWidth=5;strokeColor=#999999;edgeStyle=orthogonalEdgeStyle;entryX=1;entryY=1;entryDx=0;entryDy=0;" parent="1" source="69" target="53" edge="1">
                    <mxGeometry width="50" height="50" relative="1" as="geometry">
                        <mxPoint x="-171" y="724" as="sourcePoint"/>
                        <mxPoint x="345" y="189" as="targetPoint"/>
                    </mxGeometry>
                </mxCell>
                <mxCell id="133" value="" style="shape=mxgraph.cisco.storage.cloud;sketch=0;html=1;pointerEvents=1;dashed=0;fillColor=#CCE5FF;strokeColor=#ffffff;strokeWidth=2;verticalLabelPosition=bottom;verticalAlign=top;align=center;outlineConnect=0;" vertex="1" parent="1">
                    <mxGeometry x="520" y="1073.69" width="190" height="256.38" as="geometry"/>
                </mxCell>
                <mxCell id="134" value="" style="shape=mxgraph.cisco.storage.cloud;sketch=0;html=1;pointerEvents=1;dashed=0;fillColor=#CCE5FF;strokeColor=#ffffff;strokeWidth=2;verticalLabelPosition=bottom;verticalAlign=top;align=center;outlineConnect=0;" vertex="1" parent="1">
                    <mxGeometry x="700" y="985.38" width="350" height="420" as="geometry"/>
                </mxCell>
                <mxCell id="135" value="GLStation" style="text;html=1;align=center;verticalAlign=middle;whiteSpace=wrap;rounded=0;fontColor=#666666;fontSize=16;fontStyle=1" vertex="1" parent="1">
                    <mxGeometry x="829" y="1093.76" width="100" height="30" as="geometry"/>
                </mxCell>
                <mxCell id="136" value="GLStation-002" style="text;html=1;align=center;verticalAlign=middle;whiteSpace=wrap;rounded=0;fontColor=#666666;fontSize=18;fontStyle=1" vertex="1" parent="1">
                    <mxGeometry x="767.75" y="970" width="241" height="30" as="geometry"/>
                </mxCell>
                <mxCell id="137" value="Endpoint 002" style="swimlane;fontSize=14;fillColor=#f5f5f5;gradientColor=#b3b3b3;strokeColor=#666666;" vertex="1" parent="1">
                    <mxGeometry x="875" y="1125.38" width="116.5" height="154.62" as="geometry">
                        <mxRectangle x="320" y="130" width="80" height="30" as="alternateBounds"/>
                    </mxGeometry>
                </mxCell>
                <mxCell id="138" value="wg0" style="ellipse;whiteSpace=wrap;html=1;aspect=fixed;fillColor=#fff2cc;strokeColor=#d6b656;gradientColor=#ffd966;fontSize=16;shadow=1;" vertex="1" parent="137">
                    <mxGeometry x="28.75" y="48.88" width="40" height="40" as="geometry"/>
                </mxCell>
                <mxCell id="139" value="10.0.100.2" style="text;html=1;align=center;verticalAlign=middle;whiteSpace=wrap;rounded=0;fontColor=#666666;fontSize=16;" vertex="1" parent="137">
                    <mxGeometry x="12.5" y="28.879999999999995" width="70" height="20" as="geometry"/>
                </mxCell>
                <mxCell id="140" value="" style="group;fontSize=14;" vertex="1" connectable="0" parent="1">
                    <mxGeometry x="589" y="1052.75" width="80" height="367.25" as="geometry"/>
                </mxCell>
                <mxCell id="141" value="" style="group" vertex="1" connectable="0" parent="140">
                    <mxGeometry x="1.25" width="78.75" height="367.25" as="geometry"/>
                </mxCell>
                <mxCell id="142" value="" style="group;rotation=-90;" vertex="1" connectable="0" parent="141">
                    <mxGeometry x="-157.25" y="157.25" width="360" height="45.5" as="geometry"/>
                </mxCell>
                <mxCell id="143" value="" style="line;strokeWidth=4;html=1;dashed=1;fillColor=#fff2cc;gradientColor=#ffd966;strokeColor=#d6b656;container=0;rotation=-90;" vertex="1" parent="142">
                    <mxGeometry x="102" y="-82" width="160" height="10" as="geometry"/>
                </mxCell>
                <mxCell id="144" value="" style="line;strokeWidth=4;html=1;dashed=1;fillColor=#fff2cc;gradientColor=#ffd966;strokeColor=#d6b656;container=0;rotation=-90;" vertex="1" parent="142">
                    <mxGeometry x="103" y="118" width="160" height="10" as="geometry"/>
                </mxCell>
                <mxCell id="145" value="Allow&amp;nbsp; established" style="text;html=1;align=left;verticalAlign=middle;whiteSpace=wrap;rounded=0;fontSize=14;fontColor=#CC6600;container=0;rotation=-90;" vertex="1" parent="142">
                    <mxGeometry x="99" y="-102" width="140" height="20" as="geometry"/>
                </mxCell>
                <mxCell id="146" value="" style="editableCssRules=.*;html=1;shape=image;verticalLabelPosition=bottom;labelBackgroundColor=#ffffff;verticalAlign=top;aspect=fixed;imageAspect=0;image=data:image/svg+xml,PHN2ZyB4bWxucz0iaHR0cDovL3d3dy53My5vcmcvMjAwMC9zdmciIHhtbG5zOnY9Imh0dHBzOi8vdmVjdGEuaW8vbmFubyIgd2lkdGg9IjIwIiBoZWlnaHQ9IjIwIiBmaWxsPSIjNDI4NWY0IiB2aWV3Qm94PSIwIDAgMjAgMjAiPiYjeGE7CTxzdHlsZSB0eXBlPSJ0ZXh0L2NzcyI+JiN4YTsJLnN0MHtmaWxsOiM0Mjg1ZjQ7fSYjeGE7CTwvc3R5bGU+JiN4YTsJPHBhdGggY2xhc3M9InN0MCIgZD0iTTAgMGg4Ljg5djIuMjJIMHptMCAxNy43OGg4Ljg5VjIwSDB6bTAtOC44OWg4Ljg5djIuMjJIMHpNMTEuMTEgMEgyMHYyLjIyaC04Ljg5em0wIDE3Ljc4SDIwVjIwaC04Ljg5em0wLTguODlIMjB2Mi4yMmgtOC44OXpNNS41NSA0LjQ0aDguODl2Mi4yMkg1LjU1em0wIDguODloOC44OXYyLjIySDUuNTV6TTAgNC40NGgzLjMzdjIuMjJIMHptMCA4Ljg5aDMuMzN2Mi4yMkgwem0xNi42Ny04Ljg5SDIwdjIuMjJoLTMuMzN6bTAgOC44OUgyMHYyLjIyaC0zLjMzeiIvPiYjeGE7PC9zdmc+;" vertex="1" parent="141">
                    <mxGeometry x="33.75" y="327.25" width="40" height="40" as="geometry"/>
                </mxCell>
                <mxCell id="147" value="Firewall" style="text;html=1;align=left;verticalAlign=middle;whiteSpace=wrap;rounded=0;fontSize=14;fontColor=#FFB366;container=0;rotation=0;" vertex="1" parent="141">
                    <mxGeometry x="33.75" y="307.25" width="50" height="20" as="geometry"/>
                </mxCell>
                <mxCell id="148" value="" style="triangle;whiteSpace=wrap;html=1;fillColor=#fff2cc;gradientColor=#ffd966;strokeColor=#d6b656;rotation=-180;" vertex="1" parent="140">
                    <mxGeometry y="160.01" width="30" height="40" as="geometry"/>
                </mxCell>
                <mxCell id="149" value="" style="group;fontSize=16;" vertex="1" connectable="0" parent="1">
                    <mxGeometry x="625" y="1196.26" width="70" height="60.49000000000001" as="geometry"/>
                </mxCell>
                <mxCell id="150" value="NAT" style="text;html=1;align=center;verticalAlign=middle;whiteSpace=wrap;rounded=0;fontColor=#666666;fontSize=14;" vertex="1" parent="149">
                    <mxGeometry width="70" height="30" as="geometry"/>
                </mxCell>
                <mxCell id="151" value="" style="editableCssRules=.*;html=1;shape=image;verticalLabelPosition=bottom;labelBackgroundColor=#ffffff;verticalAlign=top;aspect=fixed;imageAspect=0;image=data:image/svg+xml,PHN2ZyB4bWxucz0iaHR0cDovL3d3dy53My5vcmcvMjAwMC9zdmciIHhtbG5zOnY9Imh0dHBzOi8vdmVjdGEuaW8vbmFubyIgd2lkdGg9IjIwIiBoZWlnaHQ9IjIwIiB2aWV3Qm94PSIwIDAgMjAgMjAiPiYjeGE7CTxzdHlsZSB0eXBlPSJ0ZXh0L2NzcyI+JiN4YTsJLnN0MHtmaWxsOiM0Mjg1ZjQ7fSYjeGE7CTwvc3R5bGU+JiN4YTsJPHBhdGggY2xhc3M9InN0MCIgZD0iTTE3IDEydjNsLTUtNSA1LTV2M2gzdjR6TTMgOEgwdjRoM3YzbDUtNS01LTV6bTkgN3YtM0g4djNINWw1IDUgNS01em0wLTEwdjNIOFY1SDVsNS01IDUgNXoiLz4mI3hhOzwvc3ZnPg==;" vertex="1" parent="149">
                    <mxGeometry x="15" y="20.49000000000001" width="40" height="40" as="geometry"/>
                </mxCell>
                <mxCell id="152" value="" style="group" vertex="1" connectable="0" parent="1">
                    <mxGeometry x="739" y="1054" width="101" height="367.25" as="geometry"/>
                </mxCell>
                <mxCell id="153" value="" style="group;fontSize=14;" vertex="1" connectable="0" parent="152">
                    <mxGeometry width="101" height="367.25" as="geometry"/>
                </mxCell>
                <mxCell id="154" value="" style="group" vertex="1" connectable="0" parent="153">
                    <mxGeometry x="1.25" width="99.75" height="367.25" as="geometry"/>
                </mxCell>
                <mxCell id="155" value="" style="group;rotation=-90;" vertex="1" connectable="0" parent="154">
                    <mxGeometry x="-157.25" y="157.25" width="360" height="45.5" as="geometry"/>
                </mxCell>
                <mxCell id="156" value="" style="line;strokeWidth=4;html=1;dashed=1;fillColor=#fff2cc;gradientColor=#ffd966;strokeColor=#d6b656;container=0;rotation=-90;" vertex="1" parent="155">
                    <mxGeometry x="102" y="-82" width="160" height="10" as="geometry"/>
                </mxCell>
                <mxCell id="157" value="" style="line;strokeWidth=4;html=1;dashed=1;fillColor=#fff2cc;gradientColor=#ffd966;strokeColor=#d6b656;container=0;rotation=-90;" vertex="1" parent="155">
                    <mxGeometry x="103" y="118" width="160" height="10" as="geometry"/>
                </mxCell>
                <mxCell id="158" value="Allow&amp;nbsp; GLStanion ssh" style="text;html=1;align=left;verticalAlign=middle;whiteSpace=wrap;rounded=0;fontSize=14;fontColor=#CC6600;container=0;rotation=-90;" vertex="1" parent="155">
                    <mxGeometry x="100" y="-105" width="140" height="20" as="geometry"/>
                </mxCell>
                <mxCell id="159" value="" style="editableCssRules=.*;html=1;shape=image;verticalLabelPosition=bottom;labelBackgroundColor=#ffffff;verticalAlign=top;aspect=fixed;imageAspect=0;image=data:image/svg+xml,PHN2ZyB4bWxucz0iaHR0cDovL3d3dy53My5vcmcvMjAwMC9zdmciIHhtbG5zOnY9Imh0dHBzOi8vdmVjdGEuaW8vbmFubyIgd2lkdGg9IjIwIiBoZWlnaHQ9IjIwIiBmaWxsPSIjNDI4NWY0IiB2aWV3Qm94PSIwIDAgMjAgMjAiPiYjeGE7CTxzdHlsZSB0eXBlPSJ0ZXh0L2NzcyI+JiN4YTsJLnN0MHtmaWxsOiM0Mjg1ZjQ7fSYjeGE7CTwvc3R5bGU+JiN4YTsJPHBhdGggY2xhc3M9InN0MCIgZD0iTTAgMGg4Ljg5djIuMjJIMHptMCAxNy43OGg4Ljg5VjIwSDB6bTAtOC44OWg4Ljg5djIuMjJIMHpNMTEuMTEgMEgyMHYyLjIyaC04Ljg5em0wIDE3Ljc4SDIwVjIwaC04Ljg5em0wLTguODlIMjB2Mi4yMmgtOC44OXpNNS41NSA0LjQ0aDguODl2Mi4yMkg1LjU1em0wIDguODloOC44OXYyLjIySDUuNTV6TTAgNC40NGgzLjMzdjIuMjJIMHptMCA4Ljg5aDMuMzN2Mi4yMkgwem0xNi42Ny04Ljg5SDIwdjIuMjJoLTMuMzN6bTAgOC44OUgyMHYyLjIyaC0zLjMzeiIvPiYjeGE7PC9zdmc+;" vertex="1" parent="154">
                    <mxGeometry x="33.75" y="327.25" width="40" height="40" as="geometry"/>
                </mxCell>
                <mxCell id="160" value="Firewall" style="text;html=1;align=left;verticalAlign=middle;whiteSpace=wrap;rounded=0;fontSize=12;fontColor=#FFB366;container=0;rotation=0;" vertex="1" parent="154">
                    <mxGeometry x="33.75" y="307.25" width="50" height="20" as="geometry"/>
                </mxCell>
                <mxCell id="161" value="UDP/IP" style="text;html=1;align=center;verticalAlign=middle;whiteSpace=wrap;rounded=0;fontColor=#666666;fontSize=14;" vertex="1" parent="154">
                    <mxGeometry x="58.75" y="146" width="60" height="30" as="geometry"/>
                </mxCell>
                <mxCell id="162" value="" style="rhombus;whiteSpace=wrap;html=1;fillColor=#fff2cc;gradientColor=#ffd966;strokeColor=#d6b656;container=0;" vertex="1" parent="152">
                    <mxGeometry x="7" y="153" width="40" height="39" as="geometry"/>
                </mxCell>
                <mxCell id="163" value="Mobile network" style="text;html=1;align=center;verticalAlign=middle;whiteSpace=wrap;rounded=0;fontColor=#999999;fontSize=18;fontStyle=1" vertex="1" parent="1">
                    <mxGeometry x="515.5" y="1030" width="195.5" height="30" as="geometry"/>
                </mxCell>
                <mxCell id="164" value="SSHD" style="shape=ext;double=1;rounded=0;whiteSpace=wrap;html=1;strokeColor=#004C99;" vertex="1" parent="1">
                    <mxGeometry x="890" y="1230" width="70" height="30" as="geometry"/>
                </mxCell>
                <mxCell id="165" value="GLStation-003" style="text;html=1;align=center;verticalAlign=middle;whiteSpace=wrap;rounded=0;fontColor=#999999;fontSize=18;fontStyle=1" vertex="1" parent="1">
                    <mxGeometry x="754.5" y="1490" width="241" height="30" as="geometry"/>
                </mxCell>
                <mxCell id="166" value="GLStation-004" style="text;html=1;align=center;verticalAlign=middle;whiteSpace=wrap;rounded=0;fontColor=#B3B3B3;fontSize=18;fontStyle=1" vertex="1" parent="1">
                    <mxGeometry x="754.5" y="1540" width="241" height="30" as="geometry"/>
                </mxCell>
                <mxCell id="167" value="GLStation-005" style="text;html=1;align=center;verticalAlign=middle;whiteSpace=wrap;rounded=0;fontColor=#CCCCCC;fontSize=18;fontStyle=1" vertex="1" parent="1">
                    <mxGeometry x="754.5" y="1590" width="241" height="30" as="geometry"/>
                </mxCell>
                <mxCell id="168" value="" style="ellipse;whiteSpace=wrap;html=1;aspect=fixed;fillColor=#999999;strokeColor=#4D4D4D;" vertex="1" parent="1">
                    <mxGeometry x="550" y="1630" width="10" height="10" as="geometry"/>
                </mxCell>
                <mxCell id="176" value="" style="endArrow=none;html=1;exitX=0;exitY=0.5;exitDx=0;exitDy=0;strokeWidth=5;strokeColor=#E6E6E6;edgeStyle=orthogonalEdgeStyle;entryX=1;entryY=1;entryDx=0;entryDy=0;" edge="1" parent="1" target="53">
                    <mxGeometry width="50" height="50" relative="1" as="geometry">
                        <mxPoint x="809.5" y="1604.65" as="sourcePoint"/>
                        <mxPoint x="370" y="1200" as="targetPoint"/>
                    </mxGeometry>
                </mxCell>
                <mxCell id="175" value="" style="endArrow=none;html=1;exitX=0;exitY=0.5;exitDx=0;exitDy=0;strokeWidth=5;strokeColor=#CCCCCC;edgeStyle=orthogonalEdgeStyle;entryX=1;entryY=1;entryDx=0;entryDy=0;" edge="1" parent="1" target="53">
                    <mxGeometry width="50" height="50" relative="1" as="geometry">
                        <mxPoint x="809.5" y="1553.9" as="sourcePoint"/>
                        <mxPoint x="400" y="1200" as="targetPoint"/>
                    </mxGeometry>
                </mxCell>
                <mxCell id="174" value="" style="endArrow=none;html=1;exitX=0;exitY=0.5;exitDx=0;exitDy=0;strokeWidth=5;strokeColor=#B3B3B3;edgeStyle=orthogonalEdgeStyle;entryX=1;entryY=1;entryDx=0;entryDy=0;" edge="1" parent="1" target="53">
                    <mxGeometry width="50" height="50" relative="1" as="geometry">
                        <mxPoint x="808" y="1503.76" as="sourcePoint"/>
                        <mxPoint x="430" y="1200" as="targetPoint"/>
                    </mxGeometry>
                </mxCell>
                <mxCell id="173" value="" style="endArrow=none;html=1;exitX=0;exitY=0.5;exitDx=0;exitDy=0;strokeWidth=5;strokeColor=#999999;edgeStyle=orthogonalEdgeStyle;entryX=1;entryY=1;entryDx=0;entryDy=0;" edge="1" parent="1" target="53">
                    <mxGeometry width="50" height="50" relative="1" as="geometry">
                        <mxPoint x="901" y="1195.76" as="sourcePoint"/>
                        <mxPoint x="360" y="710" as="targetPoint"/>
                    </mxGeometry>
                </mxCell>
                <mxCell id="178" value="" style="ellipse;whiteSpace=wrap;html=1;aspect=fixed;fillColor=#999999;strokeColor=#4D4D4D;" vertex="1" parent="1">
                    <mxGeometry x="600" y="1630" width="10" height="10" as="geometry"/>
                </mxCell>
                <mxCell id="179" value="" style="ellipse;whiteSpace=wrap;html=1;aspect=fixed;fillColor=#999999;strokeColor=#4D4D4D;" vertex="1" parent="1">
                    <mxGeometry x="650" y="1630" width="10" height="10" as="geometry"/>
                </mxCell>
                <mxCell id="65" value="" style="group" parent="1" vertex="1" connectable="0">
                    <mxGeometry x="170" y="360" width="360" height="85.5" as="geometry"/>
                </mxCell>
                <mxCell id="29" value="" style="group" parent="65" vertex="1" connectable="0">
                    <mxGeometry width="360" height="45.5" as="geometry"/>
                </mxCell>
                <mxCell id="30" value="" style="line;strokeWidth=4;html=1;dashed=1;fillColor=#fff2cc;gradientColor=#ffd966;strokeColor=#d6b656;container=0;" parent="29" vertex="1">
                    <mxGeometry x="200" y="20" width="160" height="10" as="geometry"/>
                </mxCell>
                <mxCell id="31" value="" style="line;strokeWidth=4;html=1;dashed=1;fillColor=#fff2cc;gradientColor=#ffd966;strokeColor=#d6b656;container=0;" parent="29" vertex="1">
                    <mxGeometry y="20" width="160" height="10" as="geometry"/>
                </mxCell>
                <mxCell id="32" value="" style="rhombus;whiteSpace=wrap;html=1;fillColor=#fff2cc;gradientColor=#ffd966;strokeColor=#d6b656;container=0;" parent="29" vertex="1">
                    <mxGeometry x="160" y="5.5" width="40" height="39" as="geometry"/>
                </mxCell>
                <mxCell id="33" value="Firewall" style="text;html=1;align=left;verticalAlign=middle;whiteSpace=wrap;rounded=0;fontSize=12;fontColor=#FFB366;container=0;" parent="29" vertex="1">
                    <mxGeometry y="24.5" width="50" height="20" as="geometry"/>
                </mxCell>
                <mxCell id="34" value="Allow UDP port xxxxx" style="text;html=1;align=left;verticalAlign=middle;whiteSpace=wrap;rounded=0;fontSize=12;fontColor=#CC6600;container=0;" parent="29" vertex="1">
                    <mxGeometry x="210" y="25.5" width="140" height="20" as="geometry"/>
                </mxCell>
                <mxCell id="61" value="" style="editableCssRules=.*;html=1;shape=image;verticalLabelPosition=bottom;labelBackgroundColor=#ffffff;verticalAlign=top;aspect=fixed;imageAspect=0;image=data:image/svg+xml,PHN2ZyB4bWxucz0iaHR0cDovL3d3dy53My5vcmcvMjAwMC9zdmciIHhtbG5zOnY9Imh0dHBzOi8vdmVjdGEuaW8vbmFubyIgd2lkdGg9IjIwIiBoZWlnaHQ9IjIwIiBmaWxsPSIjNDI4NWY0IiB2aWV3Qm94PSIwIDAgMjAgMjAiPiYjeGE7CTxzdHlsZSB0eXBlPSJ0ZXh0L2NzcyI+JiN4YTsJLnN0MHtmaWxsOiM0Mjg1ZjQ7fSYjeGE7CTwvc3R5bGU+JiN4YTsJPHBhdGggY2xhc3M9InN0MCIgZD0iTTAgMGg4Ljg5djIuMjJIMHptMCAxNy43OGg4Ljg5VjIwSDB6bTAtOC44OWg4Ljg5djIuMjJIMHpNMTEuMTEgMEgyMHYyLjIyaC04Ljg5em0wIDE3Ljc4SDIwVjIwaC04Ljg5em0wLTguODlIMjB2Mi4yMmgtOC44OXpNNS41NSA0LjQ0aDguODl2Mi4yMkg1LjU1em0wIDguODloOC44OXYyLjIySDUuNTV6TTAgNC40NGgzLjMzdjIuMjJIMHptMCA4Ljg5aDMuMzN2Mi4yMkgwem0xNi42Ny04Ljg5SDIwdjIuMjJoLTMuMzN6bTAgOC44OUgyMHYyLjIyaC0zLjMzeiIvPiYjeGE7PC9zdmc+;" parent="65" vertex="1">
                    <mxGeometry x="1" y="45.5" width="40" height="40" as="geometry"/>
                </mxCell>
            </root>
        </mxGraphModel>
    </diagram>
</mxfile>